<svg width="17" height="16" viewBox="0 0 17 16" fill="none" xmlns="http://www.w3.org/2000/svg">
<path d="M1 1H1.50526C2.35578 1 3.06986 1.64042 3.1621 2.48592L3.8379 8.68074C3.93014 9.52625 4.64422 10.1667 5.49474 10.1667H12.705C13.4669 10.1667 14.1317 9.65007 14.32 8.91185L15.4699 4.40259C15.7387 3.34878 14.9425 2.32407 13.855 2.32407H4M4.02063 13.1874H4.64563M4.02063 13.8124H4.64563M13.1873 13.1874H13.8123M13.1873 13.8124H13.8123M5.16667 13.5C5.16667 13.9602 4.79357 14.3333 4.33333 14.3333C3.8731 14.3333 3.5 13.9602 3.5 13.5C3.5 13.0398 3.8731 12.6667 4.33333 12.6667C4.79357 12.6667 5.16667 13.0398 5.16667 13.5ZM14.3333 13.5C14.3333 13.9602 13.9602 14.3333 13.5 14.3333C13.0398 14.3333 12.6667 13.9602 12.6667 13.5C12.6667 13.0398 13.0398 12.6667 13.5 12.6667C13.9602 12.6667 14.3333 13.0398 14.3333 13.5Z" stroke="#807D7E" stroke-width="1.5" stroke-linecap="round"/>
</svg>
