<svg width="24" height="45" viewBox="0 0 24 45" fill="none" xmlns="http://www.w3.org/2000/svg">
<g clip-path="url(#clip0_1_576)">
<path fill-rule="evenodd" clip-rule="evenodd" d="M0.565959 0.69834C0.724296 0.540513 0.912395 0.415294 1.11948 0.329856C1.32657 0.244418 1.54857 0.200439 1.77278 0.200439C1.99698 0.200439 2.21899 0.244418 2.42607 0.329856C2.63316 0.415294 2.82126 0.540513 2.9796 0.69834L23.4341 21.0355C23.5929 21.1929 23.7188 21.3799 23.8048 21.5858C23.8907 21.7917 23.9349 22.0125 23.9349 22.2354C23.9349 22.4583 23.8907 22.679 23.8048 22.8849C23.7188 23.0908 23.5929 23.2779 23.4341 23.4353L2.9796 43.7724C2.65953 44.0907 2.22542 44.2695 1.77278 44.2695C1.32013 44.2695 0.886027 44.0907 0.565959 43.7724C0.245891 43.4542 0.066078 43.0226 0.066078 42.5726C0.066078 42.1225 0.245891 41.6909 0.565959 41.3727L19.8171 22.2354L0.565959 3.09813C0.407221 2.9407 0.281279 2.75368 0.195347 2.54778C0.109416 2.34188 0.0651855 2.12115 0.0651855 1.89823C0.0651855 1.67531 0.109416 1.45458 0.195347 1.24869C0.281279 1.04279 0.407221 0.855769 0.565959 0.69834Z" fill="white"/>
</g>
<defs>
<clipPath id="clip0_1_576">
<rect width="24" height="44.4706" fill="white"/>
</clipPath>
</defs>
</svg>
