<svg width="21" height="32" viewBox="0 0 21 32" fill="none" xmlns="http://www.w3.org/2000/svg">
<path d="M18.2627 0H2.35866C1.05579 0 0 1.05575 0 2.35863V29.2698C0 30.5727 1.05579 31.6284 2.35866 31.6284H18.2627C19.5656 31.6284 20.6214 30.5727 20.6214 29.2698V2.35863C20.6214 1.07822 19.5432 0 18.2627 0Z" fill="white"/>
<path d="M19.4759 3.79639H1.12329V25.9902H19.4759V3.79639Z" fill="#404040"/>
<path d="M14.0622 1.41492H6.53693C6.2449 1.41492 5.97534 1.66201 5.97534 1.9765C5.97534 2.29099 6.22244 2.53809 6.53693 2.53809H14.0622C14.3542 2.53809 14.6238 2.29099 14.6238 1.9765C14.6238 1.68448 14.3767 1.41492 14.0622 1.41492Z" fill="#6639A6"/>
<path d="M8.51392 28.6634C8.51392 27.675 9.3226 26.8439 10.311 26.8439C11.2994 26.8439 12.1305 27.6525 12.1305 28.6634C12.1305 29.6518 11.3218 30.4604 10.311 30.4604C9.3226 30.4829 8.51392 29.6743 8.51392 28.6634Z" fill="#6639A6"/>
</svg>
