<svg width="132" height="24" viewBox="0 0 132 24" fill="none" xmlns="http://www.w3.org/2000/svg">
<path d="M11.9141 17.217L17.8865 20.8217L16.3015 14.0278L21.5781 9.45674L14.6297 8.86723L11.9141 2.45996L9.19846 8.86723L2.25 9.45674L7.52658 14.0278L5.94167 20.8217L11.9141 17.217Z" fill="#EDD146"/>
<path d="M38.9734 17.217L44.9458 20.8217L43.3609 14.0278L48.6375 9.45674L41.689 8.86723L38.9734 2.45996L36.2578 8.86723L29.3093 9.45674L34.5859 14.0278L33.001 20.8217L38.9734 17.217Z" fill="#EDD146"/>
<path d="M66.0327 17.217L72.0051 20.8217L70.4202 14.0278L75.6968 9.45674L68.7483 8.86723L66.0327 2.45996L63.3171 8.86723L56.3687 9.45674L61.6452 14.0278L60.0603 20.8217L66.0327 17.217Z" fill="#EDD146"/>
<path d="M93.0923 17.217L99.0647 20.8217L97.4798 14.0278L102.756 9.45674L95.8079 8.86723L93.0923 2.45996L90.3767 8.86723L83.4282 9.45674L88.7048 14.0278L87.1199 20.8217L93.0923 17.217Z" fill="#EDD146"/>
<path d="M129.816 9.45674L122.867 8.85757L120.152 2.45996L117.436 8.86723L110.488 9.45674L115.764 14.0278L114.179 20.8217L120.152 17.217L126.124 20.8217L124.549 14.0278L129.816 9.45674ZM120.152 15.4098L116.518 17.6035L117.484 13.4673L114.276 10.6841L118.509 10.3168L120.152 6.42223L121.804 10.3265L126.037 10.6937L122.829 13.477L123.795 17.6132L120.152 15.4098Z" fill="#EDD146"/>
</svg>
