<svg width="132" height="24" viewBox="0 0 132 24" fill="none" xmlns="http://www.w3.org/2000/svg">
<path d="M11.8459 17.2167L17.8183 20.8214L16.2334 14.0276L21.51 9.4565L14.5615 8.86699L11.8459 2.45972L9.13035 8.86699L2.18188 9.4565L7.45846 14.0276L5.87356 20.8214L11.8459 17.2167Z" fill="#EDD146"/>
<path d="M38.9053 17.2167L44.8777 20.8214L43.2928 14.0276L48.5693 9.4565L41.6209 8.86699L38.9053 2.45972L36.1897 8.86699L29.2412 9.4565L34.5178 14.0276L32.9329 20.8214L38.9053 17.2167Z" fill="#EDD146"/>
<path d="M65.9646 17.2167L71.937 20.8214L70.3521 14.0276L75.6287 9.4565L68.6802 8.86699L65.9646 2.45972L63.249 8.86699L56.3005 9.4565L61.5771 14.0276L59.9922 20.8214L65.9646 17.2167Z" fill="#EDD146"/>
<path d="M102.688 9.4565L95.7398 8.85733L93.0242 2.45972L90.3086 8.86699L83.3601 9.4565L88.6367 14.0276L87.0518 20.8214L93.0242 17.2167L98.9966 20.8214L97.4213 14.0276L102.688 9.4565ZM93.0242 15.4096V6.42198L94.6767 10.3263L98.9096 10.6935L95.7011 13.4767L96.6675 17.613L93.0242 15.4096Z" fill="#EDD146"/>
<path d="M129.748 9.4565L122.799 8.85733L120.083 2.45972L117.368 8.86699L110.419 9.4565L115.696 14.0276L114.111 20.8214L120.083 17.2167L126.056 20.8214L124.481 14.0276L129.748 9.4565ZM120.083 15.4096L116.45 17.6033L117.416 13.4671L114.208 10.6838L118.441 10.3166L120.083 6.42198L121.736 10.3263L125.969 10.6935L122.76 13.4767L123.727 17.613L120.083 15.4096Z" fill="#EDD146"/>
</svg>
